# xmcd
#
# Track frame offsets:
#	150
#	23573
#	42469
#	61649
#	85223
#	103399
#	117140
#	146143
#
# Disc length: 2395 seconds
#
# Revision: 1
# Processed by: cddbd v1.5.2PL0 Copyright (c) Steve Scherf et al.
# Submitted via: audiograbber 1.83.01
#
DISCID=67095908
DTITLE=ZZZ - Hallo 09
DYEAR=1973
DGENRE=DDR
TTITLE0=Die Skalden - Gdzie man ciebie scukac
TTITLE1=Blue Effect - Clara
TTITLE2=Omega - Törekeny w lendület
TTITLE3=Puhdys - Zeiten und Weiten
TTITLE4=Breakout - Daje ci prog
TTITLE5=Maryla Rodowicz - Kleine Eisenbahnballade
TTITLE6=Wir - Zeit
TTITLE7=Bayon - Synthetic Walzer
EXTD=
EXTT0=
EXTT1=
EXTT2=
EXTT3=
EXTT4=
EXTT5=
EXTT6=
EXTT7=
PLAYORDER=
